# xmcd CD database file
#
# Track frame offsets:
#	150
#	25954
#	99658
#	122598
#	159787
#
# Disc length: 2950 seconds
#
# Revision: 0
# Processed by: cddbd v1.5.2PL0 Copyright (c) Steve Scherf et al.
# Submitted via: CDex 1.70beta2
#
DISCID=310b8405
DTITLE=Pat Metheny Group - Travels CD2
DYEAR=1986
DGENRE=Jazz
TTITLE0=Extradition 
TTITLE1=Goin' Ahead - As Falls Wichita, So Falls Wichita Falls
TTITLE2=Travels 
TTITLE3=Song For Bilbao 
TTITLE4=San Lorenzo
EXTD=YEAR: 1986
EXTT0=
EXTT1=
EXTT2=
EXTT3=
EXTT4=
PLAYORDER=
